<svg xmlns="http://www.w3.org/2000/svg" width="28" height="28" viewBox="0 0 28 28">
    <defs>
        <clipPath id="wcgvimy9ua">
            <path data-name="사각형 7283" style="fill:#111" d="M0 0h17v17H0z"/>
        </clipPath>
    </defs>
    <g data-name="그룹 21768">
        <path data-name="사각형 6330" style="fill:none" d="M0 0h28v28H0z"/>
        <g data-name="그룹 22970">
            <g data-name="그룹 21826" transform="translate(5.5 5.5)" style="clip-path:url(#wcgvimy9ua)">
                <path data-name="패스 17832" d="M4.307 12.693C1.5 9.88.006 6.5 0 3.964a3.781 3.781 0 0 1 .949-2.74A5.552 5.552 0 0 1 2.681.064L2.912 0 7.3 4.389l-.24.287a4.654 4.654 0 0 0-1.45 2.8 3.711 3.711 0 0 0 1.34 2.577 3.713 3.713 0 0 0 2.573 1.342 4.662 4.662 0 0 0 2.8-1.45l.29-.243 4.216 4.219-.29.29.29-.29.17.17-.064.229a5.436 5.436 0 0 1-1.16 1.732 3.783 3.783 0 0 1-2.74.952c-2.54-.009-5.913-1.5-8.729-4.31M1.532 1.808a2.98 2.98 0 0 0-.709 2.156C.815 6.185 2.212 9.441 4.89 12.11s5.925 4.079 8.145 4.07a3 3 0 0 0 2.159-.709 6.555 6.555 0 0 0 .861-1.16l-3.493-3.493a4.877 4.877 0 0 1-3.041 1.4 4.529 4.529 0 0 1-3.156-1.582 4.506 4.506 0 0 1-1.58-3.159 4.854 4.854 0 0 1 1.4-3.038L2.693.946a6.449 6.449 0 0 0-1.16.861" transform="translate(0 -.001)" style="fill:#111"/>
            </g>
        </g>
    </g>
</svg>
