<svg xmlns="http://www.w3.org/2000/svg" width="20" height="20" viewBox="0 0 20 20">
    <g data-name="그룹 22956">
        <g data-name="그룹 20171">
            <path data-name="사각형 6402" style="fill:none" d="M0 0h20v20H0z"/>
        </g>
        <g data-name="그룹 22955">
            <g data-name="그룹 20166">
                <path data-name="패스 16388" d="M500.48 346.22a2.565 2.565 0 1 1-2.566-2.566 2.566 2.566 0 0 1 2.566 2.566z" transform="translate(-487.574 -335.879)" style="stroke:#fff;stroke-linecap:round;stroke-linejoin:round;fill:none"/>
            </g>
            <g data-name="그룹 20165">
                <path data-name="패스 16389" d="M498.068 342.791a1.822 1.822 0 0 1 2.293-1.017 7.854 7.854 0 0 0-.041-2.822 1.816 1.816 0 0 1-1.442-3.318 8.309 8.309 0 0 0-1.978-1.934 1.816 1.816 0 0 1-3.339-1.352 7.711 7.711 0 0 0-2.742 0 1.816 1.816 0 0 1-3.338 1.352 8.3 8.3 0 0 0-1.976 1.937 1.816 1.816 0 0 1-1.442 3.318 7.873 7.873 0 0 0-.042 2.822 1.821 1.821 0 0 1 1.332 3.387 8.31 8.31 0 0 0 2.018 2.057 1.826 1.826 0 0 1 3.373 1.4c0 .007-.008.014-.012.021a7.887 7.887 0 0 0 2.915 0c0-.008-.008-.015-.011-.022a1.826 1.826 0 0 1 3.373-1.4 8.338 8.338 0 0 0 2.019-2.057 1.824 1.824 0 0 1-.96-2.372z" transform="translate(-481.916 -330.223)" style="stroke:#fff;stroke-linecap:round;stroke-linejoin:round;fill:none"/>
            </g>
        </g>
    </g>
</svg>
