<svg xmlns="http://www.w3.org/2000/svg" width="52.472" height="11.336" viewBox="0 0 52.472 11.336">
    <g data-name="그룹 22047">
        <g data-name="그룹 21855">
            <path data-name="패스 17895" d="M-20.111 0h-6.125v-8.75h6.125a4.217 4.217 0 0 1 3.1 1.278 4.217 4.217 0 0 1 1.278 3.1 4.217 4.217 0 0 1-1.278 3.1A4.217 4.217 0 0 1-20.111 0zm-4.375-1.75h4.375a2.531 2.531 0 0 0 1.859-.766 2.531 2.531 0 0 0 .766-1.859 2.531 2.531 0 0 0-.766-1.859A2.531 2.531 0 0 0-20.111-7h-4.375zM-16.337 0l4.375-9.187L-7.587 0h-1.969l-2.406-5.031L-14.369 0zm11.762-1.719a.984.984 0 0 1 .715.277.856.856 0 0 1 .285.629.856.856 0 0 1-.285.629.984.984 0 0 1-.715.277.991.991 0 0 1-.725-.277.862.862 0 0 1-.281-.629.862.862 0 0 1 .281-.628.991.991 0 0 1 .725-.278zM-1.47 0v-11.242h1.414v10.015h4.039V0zm9.826-11.242V0H6.942v-11.242zm8.881 0v1.227H13.2v3.781h4.039v1.227H13.2V0h-1.416v-11.242zm9 0v1.227h-4.7v3.781h4.7v1.227h-4.7v3.781h4.7V0h-6.118v-11.242z" transform="translate(26.236 11.242)" style="fill:#111"/>
        </g>
    </g>
</svg>
