<svg xmlns="http://www.w3.org/2000/svg" width="30.002" height="30" viewBox="0 0 30.002 30">
    <g data-name="그룹 20515">
        <path data-name="제외 2" d="M15 30A15 15 0 0 1 4.393 4.393a15 15 0 1 1 21.214 21.213A14.9 14.9 0 0 1 15 30zM12.041 8.142a3.9 3.9 0 0 0-3.9 3.9v5.71a3.9 3.9 0 0 0 3.9 3.9h5.709a3.9 3.9 0 0 0 3.9-3.9V12.04a3.9 3.9 0 0 0-3.9-3.9zm5.775 12.295h-5.842a2.59 2.59 0 0 1-2.588-2.587v-5.842a2.59 2.59 0 0 1 2.588-2.588h5.843a2.591 2.591 0 0 1 2.583 2.588v5.842a2.591 2.591 0 0 1-2.584 2.587zM14.9 11.424a3.5 3.5 0 1 0 3.5 3.5 3.508 3.508 0 0 0-3.5-3.5zm3.622-.949a.816.816 0 1 0 .815.816.817.817 0 0 0-.82-.816zM14.9 17.2a2.272 2.272 0 1 1 2.272-2.272A2.274 2.274 0 0 1 14.9 17.2z" style="fill:#282828" transform="translate(.001)"/>
    </g>
</svg>
