<svg xmlns="http://www.w3.org/2000/svg" width="18" height="18" viewBox="0 0 18 18">
  <defs>
    <style>
      .cls-1, .cls-2 {
        fill: none;
      }

      .cls-3, .cls-4 {
        stroke: none;
      }

      .cls-4 {
        fill: #111;
      }
    </style>
  </defs>
  <g id="그룹_22439" data-name="그룹 22439" transform="translate(-157 -1256)">
    <rect id="사각형_6313" data-name="사각형 6313" class="cls-1" width="18" height="18" transform="translate(157 1256)"/>
    <g id="다각형_15" data-name="다각형 15" class="cls-2" transform="translate(160 1259)">
      <path class="cls-3" d="M6,0,7.8,4.028l4.2.555L8.912,7.628,9.708,12,6,9.853,2.292,12l.8-4.372L0,4.584l4.2-.555Z"/>
      <path class="cls-4" d="M 6 2.451269149780273 L 4.885029792785645 4.946599960327148 L 2.157793045043945 5.307081699371338 L 4.166019916534424 7.28754997253418 L 3.663045883178711 10.05073547363281 L 6 8.697910308837891 L 8.336954116821289 10.05073547363281 L 7.833980083465576 7.28754997253418 L 9.842206954956055 5.307081699371338 L 7.114970207214355 4.946599960327148 L 6 2.451269149780273 M 6 0 L 7.800000190734863 4.028450012207031 L 12 4.583590030670166 L 8.912460327148438 7.6284499168396 L 9.708200454711914 12 L 6 9.85338020324707 L 2.291799545288086 12 L 3.087539672851562 7.6284499168396 L 0 4.583590030670166 L 4.199999809265137 4.028450012207031 L 6 0 Z"/>
    </g>
  </g>
</svg>
