<?xml version="1.0" encoding="UTF-8"?>
<svg xmlns="http://www.w3.org/2000/svg" xmlns:xlink="http://www.w3.org/1999/xlink" width="28px" height="28px" viewBox="0 0 28 28" version="1.1">
<g id="surface1">
<rect x="0" y="0" width="28" height="28" style="fill:rgb(100%,100%,100%);fill-opacity:1;stroke:none;"/>
<path style=" stroke:none;fill-rule:nonzero;fill:rgb(0%,0%,0%);fill-opacity:1;" d="M 4.621094 4.921875 L 4.621094 23.921875 L 23.621094 23.921875 L 23.621094 4.921875 Z M 22.628906 22.890625 L 5.601562 22.890625 L 5.601562 5.949219 L 22.628906 5.949219 Z M 22.628906 22.890625 "/>
<path style=" stroke:none;fill-rule:nonzero;fill:rgb(0%,0%,0%);fill-opacity:1;" d="M 13.21875 12.460938 L 10.121094 12.460938 L 9.230469 14.441406 L 8.421875 14.441406 L 11.511719 7.691406 L 11.851562 7.691406 L 14.921875 14.441406 L 14.109375 14.441406 Z M 12.929688 11.808594 L 11.679688 9.019531 L 11.671875 9.019531 L 10.421875 11.808594 Z M 12.929688 11.808594 "/>
<path style=" stroke:none;fill-rule:nonzero;fill:rgb(0%,0%,0%);fill-opacity:1;" d="M 19.808594 19.828125 L 19.691406 20.488281 L 14.421875 20.488281 L 14.421875 20.199219 L 18.621094 14.441406 L 14.511719 14.441406 L 14.621094 13.78125 L 19.800781 13.78125 L 19.800781 14.070312 L 15.589844 19.828125 Z M 19.808594 19.828125 "/>
</g>
</svg>
