<svg xmlns="http://www.w3.org/2000/svg" width="40" height="40" viewBox="0 0 40 40">
    <path data-name="제외 1" d="M20 40A20 20 0 0 1 5.858 5.858a20 20 0 0 1 28.284 28.284A19.869 19.869 0 0 1 20 40zm.085-29.014c-5.839 0-10.589 3.755-10.589 8.372 0 2.92 1.878 5.582 5.023 7.122-.183.683-.795 2.97-.918 3.46a.518.518 0 0 0 .021.432.2.2 0 0 0 .163.072.491.491 0 0 0 .26-.09c.17-.113 2.533-1.72 3.8-2.583l.273-.185a13.4 13.4 0 0 0 1.966.144c5.839 0 10.59-3.755 10.59-8.372s-4.75-8.372-10.589-8.372z" style="fill:#282828"/>
    <path data-name="합치기 15" d="m11.819 3.788-1.207-1.466-.26.241v.956a.456.456 0 0 1-.91 0v-3.1a.456.456 0 0 1 .91 0v1.1L11.781.194a.423.423 0 0 1 .566 0 .351.351 0 0 1 0 .524l-1.154 1.067 1.277 1.552a.358.358 0 0 1-.081.527.426.426 0 0 1-.243.075.421.421 0 0 1-.327-.151zm-6.176-.1-.21-.551H3.752l-.21.551a.417.417 0 0 1-.519.231.37.37 0 0 1-.25-.48l1.208-3a.393.393 0 0 1 .023-.05A.583.583 0 0 1 4.6 0a.61.61 0 0 1 .576.326l1.235 3.111a.369.369 0 0 1-.249.48.439.439 0 0 1-.135.021.407.407 0 0 1-.384-.252zM4.019 2.432h1.148L4.6.942h-.016zm-2.39 1.505a.425.425 0 0 1-.288-.11.364.364 0 0 1-.12-.267V.828h-.8A.4.4 0 0 1 0 .441.4.4 0 0 1 .419.053h2.465A.4.4 0 0 1 3.3.441a.4.4 0 0 1-.419.387h-.755V3.56a.365.365 0 0 1-.121.267.423.423 0 0 1-.288.11zm5.5-.025a.367.367 0 0 1-.381-.353.431.431 0 0 1 .007-.067.407.407 0 0 1-.007-.067V.419a.456.456 0 0 1 .91 0v2.789h1.149a.353.353 0 1 1 0 .7z" transform="translate(13.498 18.034)" style="fill:#777;stroke:transparent;stroke-miterlimit:10"/>
</svg>
