<svg xmlns="http://www.w3.org/2000/svg" width="20" height="20" viewBox="0 0 20 20">
    <g data-name="그룹 22553">
        <path data-name="사각형 6500" style="opacity:.2;fill:none" d="M0 0h20v20H0z"/>
        <path data-name="패스 15193" d="M255.449 706.027a4.385 4.385 0 0 0-1.957-1.133 4.43 4.43 0 0 0-1.391-.149 4.385 4.385 0 0 0-2.893 1.282l-.726.727-.727-.727a4.413 4.413 0 1 0-6.241 6.241l.727.726 1.061 1.062 2.844 2.844 2.336 2.335 6.241-6.241.727-.726a4.414 4.414 0 0 0-.001-6.241z" transform="translate(-238.521 -701.735)" style="stroke:#111;stroke-width:1.5px;fill:none"/>
    </g>
</svg>
