<svg xmlns="http://www.w3.org/2000/svg" width="64" height="64" viewBox="0 0 64 64">
    <g data-name="그룹 23316">
        <g data-name="그룹 21812">
            <g data-name="그룹 21804">
                <path data-name="사각형 6472" style="fill:none" d="M0 0h64v64H0z"/>
            </g>
        </g>
        <g data-name="패스 19788" style="stroke-linecap:round;stroke-linejoin:round;fill:none">
            <path d="M36.421 3.092a10.115 10.115 0 0 0-14.052 3.22l-.937 1.505-.932-1.505a10.114 10.114 0 0 0-14.053-3.22C1.69 6.134-.178 12.872 3.271 17.324l3.93 4.4C12.511 27.654 21.33 37.5 21.432 37.5s8.968-9.9 14.277-15.828l3.891-4.348c3.742-4.78 1.576-11.19-3.179-14.232z" style="stroke:none" transform="translate(10.497 12.504)"/>
            <path d="M11.873 1.5c-1.859 0-3.738.514-5.426 1.592-4.757 3.042-6.625 9.78-3.176 14.232 0 0 1.639 1.836 3.93 4.396 5.31 5.934 14.129 15.776 14.231 15.776.104 0 8.973-9.894 14.277-15.824l3.889-4.348c3.744-4.78 1.578-11.19-3.177-14.232-4.757-3.04-11.047-1.598-14.052 3.22l-.937 1.505-.933-1.505A10.154 10.154 0 0 0 11.873 1.5m0-1.5c1.94 0 3.867.492 5.573 1.423a11.733 11.733 0 0 1 3.988 3.583 11.74 11.74 0 0 1 3.99-3.583A11.665 11.665 0 0 1 30.995 0c2.205 0 4.36.632 6.233 1.828a12.974 12.974 0 0 1 3.704 3.598c.975 1.432 1.636 3.05 1.914 4.678.496 2.916-.238 5.808-2.068 8.145l-.063.075-3.89 4.348c-2.021 2.26-5.89 6.584-9.09 10.14-1.57 1.743-2.803 3.108-3.666 4.055-.482.53-.857.939-1.115 1.215-.142.153-.25.267-.329.348-.179.184-.551.566-1.194.566-.643 0-1.015-.382-1.194-.566a23.278 23.278 0 0 1-.327-.346c-.255-.275-.628-.681-1.108-1.209-.856-.94-2.083-2.298-3.649-4.038-2.29-2.546-5.343-5.95-9.071-10.117-2.292-2.56-3.931-4.397-3.931-4.397a1.5 1.5 0 0 1-.067-.08C.33 15.977-.351 13.078.168 10.08a12.43 12.43 0 0 1 1.844-4.644 12.297 12.297 0 0 1 3.627-3.607 11.56 11.56 0 0 1 6.234-1.83z" style="fill:#111;stroke:none" transform="translate(10.497 12.504)"/>
        </g>
        <path data-name="패스 19789" d="M10.963 1.864a6.749 6.749 0 0 0-6 .775C1.633 4.808.326 9.611 2.738 12.784" transform="translate(14.005 15.918)" style="stroke:#111;stroke-width:1.5px;stroke-linecap:round;stroke-linejoin:round;fill:none"/>
    </g>
</svg>
