<svg xmlns="http://www.w3.org/2000/svg" width="64" height="64" viewBox="0 0 64 64">
    <g data-name="그룹 21014">
        <path data-name="사각형 6061" style="opacity:.2;fill:none" d="M0 0h64v64H0z"/>
        <g data-name="그룹 21013">
            <g data-name="타원 1392" style="fill:#fff;stroke:#111;stroke-width:1.5px" transform="translate(10 10)">
                <circle cx="22" cy="22" r="22" style="stroke:none"/>
                <circle cx="22" cy="22" r="21.25" style="fill:none"/>
            </g>
            <g style="isolation:isolate">
                <g data-name="그룹 21012" style="isolation:isolate">
                    <path data-name="패스 17863" d="M240.957 419h-.543l-1.283-11.778q-.044-.391-.065-.685a6.486 6.486 0 0 1-.022-.467 2.166 2.166 0 0 1 .478-1.467 1.49 1.49 0 0 1 1.173-.555 1.474 1.474 0 0 1 1.163.544 2.483 2.483 0 0 1 .467 1.652q0 .326-.065.978zm-.282 2.433a1.547 1.547 0 0 1 1.13.479 1.522 1.522 0 0 1 .477 1.108 1.589 1.589 0 0 1-.467 1.152 1.534 1.534 0 0 1-1.141.477 1.632 1.632 0 0 1-1.63-1.63 1.5 1.5 0 0 1 .489-1.119 1.6 1.6 0 0 1 1.142-.472z" transform="translate(-208.81 -382.799)" style="fill:#111"/>
                </g>
            </g>
        </g>
    </g>
</svg>
