<svg data-name="그룹 23531" xmlns="http://www.w3.org/2000/svg" width="26" height="26" viewBox="0 0 26 26">
    <g data-name="그룹 23558">
        <g data-name="패스 19788" style="fill:none;stroke-linecap:round;stroke-linejoin:round">
            <path d="M17.022 2.208a4.5 4.5 0 0 0-6.246 1.431l-.417.669-.415-.669A4.5 4.5 0 0 0 3.7 2.208C1.584 3.56.754 6.555 2.287 8.534l1.747 1.954c2.36 2.638 6.28 7.012 6.326 7.012s3.988-4.4 6.346-7.034l1.729-1.933a4.355 4.355 0 0 0-1.413-6.325z" style="stroke:none" transform="translate(2.501 3.5)"/>
            <path d="M6.11 1.5c-.826 0-1.661.228-2.411.708C1.584 3.56.754 6.555 2.287 8.534c0 0 .728.816 1.747 1.953 2.36 2.638 6.28 7.013 6.325 7.013.047 0 3.989-4.398 6.346-7.034l1.729-1.932c1.664-2.125.701-4.974-1.412-6.326-2.115-1.351-4.91-.71-6.246 1.43l-.417.67-.414-.67A4.513 4.513 0 0 0 6.11 1.5m0-1c1.665 0 3.207.738 4.25 2.007A5.48 5.48 0 0 1 14.61.5c1.044 0 2.064.299 2.95.865 1.393.89 2.382 2.35 2.646 3.903A4.894 4.894 0 0 1 19.18 9.2l-1.729 1.933a2171.78 2171.78 0 0 1-4.041 4.507c-.698.776-1.247 1.383-1.63 1.805-.216.236-.384.419-.499.542-.256.275-.477.513-.92.513-.444 0-.665-.237-.92-.512a70.968 70.968 0 0 1-.496-.54c-.38-.418-.927-1.022-1.623-1.796a2308.788 2308.788 0 0 1-4.033-4.498L1.541 9.2a.999.999 0 0 1-.045-.054C.658 8.064.332 6.683.58 5.256a5.88 5.88 0 0 1 2.581-3.89A5.471 5.471 0 0 1 6.11.5z" style="fill:#111;stroke:none" transform="translate(2.501 3.5)"/>
        </g>
        <path data-name="패스 19789" d="M4.31 1.591a2 2 0 0 0-1.783.23 2.158 2.158 0 0 0-.66 3.013" transform="translate(5.045 5.849)" style="stroke:#111;fill:none;stroke-linecap:round;stroke-linejoin:round"/>
    </g>
</svg>
