<svg xmlns="http://www.w3.org/2000/svg" width="56" height="56" viewBox="0 0 56 56">
    <defs>
        <clipPath id="2r6lr055fa">
            <path data-name="사각형 7473" transform="translate(-.075 -.075)" style="fill:#c9c9c9" d="M0 0h28v28H0z"/>
        </clipPath>
    </defs>
    <g data-name="그룹 23320" transform="translate(-215 -632)">
        <rect data-name="finger print" width="56" height="56" rx="28" transform="translate(215 632)" style="fill:#333"/>
        <g data-name="마스크 그룹 279" transform="translate(229.075 646.075)" style="clip-path:url(#2r6lr055fa)">
            <g data-name="Icon ionic-md-finger-print">
                <path data-name="패스 17909" d="M3.713 11.133a.851.851 0 0 1-.742-1.277c1.082-1.823 4.37-6.083 11.553-6.083a13.588 13.588 0 0 1 8.107 2.456 13.754 13.754 0 0 1 3.41 3.579.844.844 0 0 1-.225 1.179.864.864 0 0 1-1.191-.225 11.5 11.5 0 0 0-10.1-5.3c-6.3 0-9.14 3.671-10.07 5.245a.839.839 0 0 1-.742.426z" transform="translate(-.449 -.121)" style="fill:#c9c9c9"/>
                <path data-name="패스 17910" d="M17.887 26.967a.847.847 0 0 1-.213-.024c-5.208-1.307-7.153-6.569-7.232-6.788l-.012-.048c-.042-.152-1.088-3.762.519-5.877a3.936 3.936 0 0 1 3.33-1.458 3.548 3.548 0 0 1 3.045 1.328 6.633 6.633 0 0 1 1 2.5c.455 1.8.784 2.753 2.679 2.852a1.958 1.958 0 0 0 1.69-.869 5.083 5.083 0 0 0 .353-4.649 9.72 9.72 0 0 0-8.776-6.142 8.909 8.909 0 0 0-5.761 2.03 9.353 9.353 0 0 0-2.882 4.243c-.936 2.965.291 7.627.3 7.669a.843.843 0 0 1-.605 1.037.864.864 0 0 1-1.051-.605c-.054-.213-1.367-5.186-.285-8.611a10.8 10.8 0 0 1 17.196-4.947 11.857 11.857 0 0 1 3.46 4.7 6.717 6.717 0 0 1-.571 6.247 3.641 3.641 0 0 1-3.16 1.568c-3.246-.164-3.829-2.456-4.254-4.126-.437-1.714-.717-2.54-2.388-2.54a2.29 2.29 0 0 0-1.963.784 4.142 4.142 0 0 0-.529 2.674 8.729 8.729 0 0 0 .285 1.69c.134.341 1.872 4.649 6.035 5.694a.844.844 0 0 1 .62 1.027.864.864 0 0 1-.83.641z" transform="translate(-.194 .722)" style="fill:#c9c9c9"/>
                <path data-name="패스 17911" d="M10.348 25.717a.864.864 0 0 1-.626-.267 13.656 13.656 0 0 1-3.707-7.779v-.018a9.075 9.075 0 0 1 1.9-6.941 7.044 7.044 0 0 1 5.5-2.219 6.828 6.828 0 0 1 6.265 3.74 10.506 10.506 0 0 1 1.179 3.616.858.858 0 1 1-1.708.173 8.8 8.8 0 0 0-1-3.021 5.126 5.126 0 0 0-4.74-2.813 5.391 5.391 0 0 0-4.218 1.647 7.466 7.466 0 0 0-1.489 5.6 11.985 11.985 0 0 0 3.264 6.855.841.841 0 0 1-.042 1.2.864.864 0 0 1-.578.227z" transform="translate(.659 1.583)" style="fill:#c9c9c9"/>
                <path data-name="패스 17912" d="M18.192 21.456a7.068 7.068 0 0 1-4.613-1.526 8.516 8.516 0 0 1-2.785-5.475.857.857 0 1 1 1.708-.134 6.9 6.9 0 0 0 2.175 4.309 5.894 5.894 0 0 0 4.528 1.07.854.854 0 0 1 .951.748.844.844 0 0 1-.754.936 10.4 10.4 0 0 1-1.21.072z" transform="translate(2.418 3.406)" style="fill:#c9c9c9"/>
                <path data-name="패스 17913" d="M21.649 3.287c-.713-.467-3.233-1.858-7.973-1.858-4.976 0-7.506 1.537-8.064 1.926a.664.664 0 0 0-.1.079.019.019 0 0 1-.012.006.844.844 0 0 0 .57 1.477.864.864 0 0 0 .5-.161l-.006.006c.024-.018 2.206-1.642 7.117-1.642s7.092 1.628 7.117 1.642l-.006-.006.012-.012a.851.851 0 1 0 .85-1.457z" transform="translate(.4 -.967)" style="fill:#c9c9c9"/>
            </g>
        </g>
    </g>
</svg>
