<svg xmlns="http://www.w3.org/2000/svg" width="34" height="34" viewBox="0 0 34 34">
    <defs>
        <clipPath id="ivh6cr9hia">
            <path data-name="사각형 7599" style="fill:none" d="M0 0h20.495v26H0z"/>
        </clipPath>
    </defs>
    <g data-name="그룹 23236">
        <path data-name="사각형 7578" style="fill:transparent" d="M0 0h34v34H0z"/>
        <g data-name="그룹 23378">
            <g data-name="그룹 23377" transform="translate(6.999 4)" style="clip-path:url(#ivh6cr9hia)">
                <path data-name="패스 19881" d="M1.029 25.568V10.809C1.029 5.115 5.108.5 10.14.5s9.11 4.615 9.11 10.309v15.073" transform="translate(.107 .052)" style="stroke:#0e0f0f;fill:none"/>
                <path data-name="패스 19882" d="M.5 24.4a9.7 9.7 0 0 1 19.391 0" transform="translate(.052 1.534)" style="fill:#f8f8f8"/>
                <path data-name="패스 19883" d="M.5 24.4a9.7 9.7 0 0 1 19.391 0" transform="translate(.052 1.534)" style="stroke:#000;stroke-miterlimit:10;fill:none"/>
                <path data-name="패스 19884" d="M3.9 10.176c0 3.713 2.66 6.722 5.941 6.722s5.941-3.009 5.941-6.722c0-.1-.009-.192-.012-.287a2.4 2.4 0 0 1-2.7-.734 5.681 5.681 0 0 1-1.489-2.6c-.21.248-.422.5-.641.744a7.774 7.774 0 0 1-3.845 2.612 6.07 6.07 0 0 1-3.2-.2z" transform="translate(.407 .684)" style="fill:#f7f7f7"/>
                <path data-name="패스 19885" d="M6.453 14.248 9.371 22.9l3.373-8.649" transform="translate(.673 1.486)" style="stroke:#0e0f0f;fill:none"/>
                <path data-name="패스 19886" d="M3.9 10.176c0 3.713 2.66 6.722 5.941 6.722s5.941-3.009 5.941-6.722c0-.1-.009-.192-.012-.287a2.4 2.4 0 0 1-2.7-.734 5.681 5.681 0 0 1-1.489-2.6c-.21.248-.422.5-.641.744a7.774 7.774 0 0 1-3.845 2.612 6.07 6.07 0 0 1-3.2-.2z" transform="translate(.407 .684)" style="fill:#f8f8f8"/>
                <path data-name="패스 19887" d="M3.9 10.176c0 3.713 2.66 6.722 5.941 6.722s5.941-3.009 5.941-6.722c0-.1-.009-.192-.012-.287a2.4 2.4 0 0 1-2.7-.734 5.681 5.681 0 0 1-1.489-2.6c-.21.248-.422.5-.641.744a7.774 7.774 0 0 1-3.845 2.612 6.07 6.07 0 0 1-3.2-.2z" transform="translate(.407 .684)" style="stroke:#000;stroke-miterlimit:10;fill:none"/>
                <path data-name="선 919" transform="translate(13.416 22.656)" style="stroke:#000;stroke-miterlimit:10;fill:none" d="M0 0h3.547"/>
            </g>
        </g>
    </g>
</svg>
