<svg xmlns="http://www.w3.org/2000/svg" width="20" height="20" viewBox="0 0 20 20">
    <path data-name="사각형 6502" style="opacity:.18;fill:none" d="M0 0h20v20H0z"/>
    <g data-name="타원 860" transform="translate(1 1)" style="stroke:#999;fill:none">
        <circle cx="9" cy="9" r="9" style="stroke:none"/>
        <circle cx="9" cy="9" r="8.5" style="fill:none"/>
    </g>
    <path data-name="패스 19785" d="M2.618-8.078a.605.605 0 0 1-.448-.168.605.605 0 0 1-.17-.448 1.179 1.179 0 0 1 .03-.206 1.143 1.143 0 0 1 .336-.623.826.826 0 0 1 .574-.231.624.624 0 0 1 .46.164.605.605 0 0 1 .168.448 1.092 1.092 0 0 1-.273.763.879.879 0 0 1-.677.301zM1.4.126Q.476.126.476-.9a4.043 4.043 0 0 1 .154-.99l.57-2.016a5.265 5.265 0 0 0 .238-1.12.324.324 0 0 0-.168-.329 1.723 1.723 0 0 0-.63-.077 1.183 1.183 0 0 1 .084-.532 4.262 4.262 0 0 0 .833-.224 4.07 4.07 0 0 0 .777-.35.823.823 0 0 1 .413.329 1.073 1.073 0 0 1 .133.567 4.008 4.008 0 0 1-.168 1.008l-.77 2.7a3.59 3.59 0 0 0-.168.812.3.3 0 0 0 .056.21.25.25 0 0 0 .182.056 1.12 1.12 0 0 0 .728-.406.6.6 0 0 1 .26.45 2.359 2.359 0 0 1-1.6.938z" transform="translate(8.023 14.758)" style="fill:#999"/>
</svg>
