<svg xmlns="http://www.w3.org/2000/svg" width="40" height="40" viewBox="0 0 40 40">
    <defs>
        <clipPath id="tfb53oiz0a">
            <path data-name="사각형 7847" transform="translate(19.531 134.531)" style="stroke:transparent;fill:none" d="M0 0h40v40H0z"/>
        </clipPath>
    </defs>
    <g data-name="마스크 그룹 374" transform="translate(-19.531 -134.531)" style="clip-path:url(#tfb53oiz0a)">
        <g data-name="그룹 24467">
            <g data-name="그룹 24466">
                <path data-name="빼기 5" d="M18 20h-8a3 3 0 0 0-6 0H2.088A2.324 2.324 0 0 1 0 17.5v-15A2.325 2.325 0 0 1 2.088 0h16.7a2.325 2.325 0 0 1 2.087 2.5v2.2h1.295a4.4 4.4 0 0 1 1.545.344 7.15 7.15 0 0 1 1.217 1.046l3.468 4.367a4.208 4.208 0 0 1 .461 1.1A6.826 6.826 0 0 1 29 12.866v4.584A2.445 2.445 0 0 1 26.681 20H24a3 3 0 0 0-6 0z" transform="translate(25.531 144.53)" style="stroke:#111;fill:#fff"/>
                <g data-name="그룹 24464" transform="translate(28.138 146.626)">
                    <rect data-name="사각형 7846" width="16" height="13" rx="1" transform="translate(.393 -.096)" style="fill:#f54c2b"/>
                    <path data-name="패스 19845" d="M-27.584-6.349H-31.5v-5.5h3.921a2.725 2.725 0 0 1 1.982.8 2.626 2.626 0 0 1 .814 1.949 2.626 2.626 0 0 1-.817 1.948 2.725 2.725 0 0 1-1.984.803zm-2.8-1.1h2.8a1.636 1.636 0 0 0 1.19-.481A1.576 1.576 0 0 0-25.9-9.1a1.576 1.576 0 0 0-.49-1.168 1.636 1.636 0 0 0-1.19-.481h-2.8zm5.216 1.1 2.8-5.774 2.8 5.774h-1.26l-1.54-3.162-1.54 3.162z" transform="translate(33.897 15.527)" style="fill:#fff"/>
                </g>
                <g data-name="그룹 24465" transform="translate(29.882 162.323)">
                    <circle data-name="타원 1434" cx="3" cy="3" r="3" transform="translate(-.352 -.792)" style="stroke:#111;fill:none"/>
                    <circle data-name="타원 1435" cx="3" cy="3" r="3" transform="translate(13.648 -.792)" style="stroke:#111;fill:none"/>
                </g>
            </g>
        </g>
    </g>
</svg>
