<svg xmlns="http://www.w3.org/2000/svg" width="24" height="24" viewBox="0 0 24 24">
    <path data-name="사각형 6402" style="opacity:.2;fill:none" d="M0 0h24v24H0z"/>
    <g data-name="그룹 23728">
        <g data-name="사각형 6533" style="stroke:#111;fill:none">
            <path d="M6 0h4a6 6 0 0 1 6 6v10H6a6 6 0 0 1-6-6V6a6 6 0 0 1 6-6z" style="stroke:none" transform="translate(4 4)"/>
            <path d="M6 .5h4A5.5 5.5 0 0 1 15.5 6v9.5H6A5.5 5.5 0 0 1 .5 10V6A5.5 5.5 0 0 1 6 .5z" style="fill:none" transform="translate(4 4)"/>
        </g>
        <path data-name="패스 16449" d="M678.518 384.58a2.569 2.569 0 0 1 .177-1.1 3.175 3.175 0 0 1 .761-.828 4.844 4.844 0 0 0 .665-.78 1.461 1.461 0 0 0 .246-.822 1.1 1.1 0 0 0-.282-.807 1.071 1.071 0 0 0-.8-.287 1.186 1.186 0 0 0-.755.244.862.862 0 0 0-.311.721h-1.254l-.016-.032a1.766 1.766 0 0 1 .64-1.487 2.6 2.6 0 0 1 1.7-.533 2.51 2.51 0 0 1 1.755.573 2.043 2.043 0 0 1 .63 1.591 2.208 2.208 0 0 1-.394 1.262 4.844 4.844 0 0 1-.994 1.064 1.231 1.231 0 0 0-.383.509 2.46 2.46 0 0 0-.078.707zm1.323 2.208h-1.329v-1.248h1.329z" transform="translate(-666.948 -370.875)" style="fill:#111"/>
    </g>
</svg>
