<svg xmlns="http://www.w3.org/2000/svg" width="40" height="40" viewBox="0 0 40 40">
    <defs>
        <clipPath id="cd76tjxmfa">
            <path data-name="사각형 7783" transform="translate(-.313)" style="fill:#f1f1f1" d="M0 0h40v40H0z"/>
        </clipPath>
    </defs>
    <g data-name="마스크 그룹 370" transform="translate(.313)" style="clip-path:url(#cd76tjxmfa)">
        <g data-name="la_hands-helping">
            <path data-name="패스 19988" d="M12.144 11.859A20.513 20.513 0 0 0 8.2 14.643C6.714 16.129 3.743 19.1 3 19.1v10.4h19.315m0-26L29 9.443l-2.229 3.714-.743 2.972h-9.656v4.457c0 2.377-2.972 2.476-4.457 2.229V13.9a7.552 7.552 0 0 1 5.2-7.429 22.865 22.865 0 0 0 5.2-2.971z" style="fill:none;stroke:#000;stroke-linecap:round;stroke-linejoin:round" transform="translate(3.687 3.5)"/>
            <path data-name="패스 19989" d="M20.2 16.457H15m5.2 0c.991-.743 2.377-2.674 0-4.457m0 4.457c2.972 1.783 1.238 3.714 0 4.457m0 0H15m5.2 0c2.972 1.189 1.486 4.457-.743 4.457h-2.971" transform="translate(9.517 7.629)" style="fill:none;stroke:#000;stroke-linecap:round;stroke-linejoin:round"/>
        </g>
    </g>
</svg>
