<svg xmlns="http://www.w3.org/2000/svg" width="26" height="26" viewBox="0 0 26 26">
    <g data-name="그룹 24591">
        <g data-name="그룹 24590">
            <g data-name="그룹 21770">
                <g data-name="사각형 6831" transform="translate(4.999 7)" style="fill:#111;stroke:#111;stroke-miterlimit:10">
                    <rect width="11.137" height="1.207" rx=".5" style="stroke:none"/>
                    <path style="fill:none" d="M.5.5h10.137v.207H.5z"/>
                </g>
                <g data-name="사각형 6832" transform="translate(4.999 12.769)" style="fill:#111;stroke:#111;stroke-miterlimit:10">
                    <rect width="11.137" height="1.207" rx=".5" style="stroke:none"/>
                    <path style="fill:none" d="M.5.5h10.137v.207H.5z"/>
                </g>
                <g data-name="사각형 6833" transform="translate(4.999 18.537)" style="fill:#111;stroke:#111;stroke-miterlimit:10">
                    <rect width="11.137" height="1.207" rx=".5" style="stroke:none"/>
                    <path style="fill:none" d="M.5.5h10.137v.207H.5z"/>
                </g>
            </g>
            <g data-name="그룹 24588">
                <g data-name="사각형 6831" style="fill:#111;stroke:#111;stroke-miterlimit:10" transform="translate(17.376 7)">
                    <rect width="3.883" height="1.207" rx=".604" style="stroke:none"/>
                    <rect x=".5" y=".5" width="2.883" height=".207" rx=".104" style="fill:none"/>
                </g>
                <g data-name="사각형 6832" transform="translate(17.376 12.769)" style="fill:#111;stroke:#111;stroke-miterlimit:10">
                    <rect width="3.883" height="1.207" rx=".604" style="stroke:none"/>
                    <rect x=".5" y=".5" width="2.883" height=".207" rx=".104" style="fill:none"/>
                </g>
                <g data-name="사각형 6833" transform="translate(17.376 18.537)" style="fill:#111;stroke:#111;stroke-miterlimit:10">
                    <rect width="3.883" height="1.207" rx=".604" style="stroke:none"/>
                    <rect x=".5" y=".5" width="2.883" height=".207" rx=".104" style="fill:none"/>
                </g>
            </g>
        </g>
    </g>
</svg>
