<svg data-name="그룹 24198" xmlns="http://www.w3.org/2000/svg" width="102" height="30" viewBox="0 0 102 30">
    <defs>
        <clipPath id="39g68q72aa">
            <path data-name="사각형 7461" style="fill:#fff" d="M0 0h86.151v16.217H0z"/>
        </clipPath>
    </defs>
    <path data-name="사각형 7796" style="fill:none" d="M0 0h102v30H0z"/>
    <g data-name="그룹 22823">
        <path data-name="패스 17912" d="M102.5 0v16.217h14.19v-3.04h-11.149V0z" transform="translate(-54.201 7.417)" style="fill:#fff"/>
        <g data-name="그룹 22822">
            <path data-name="사각형 7462" style="fill:none" d="M0 0h97v20H0z" transform="translate(2 5)"/>
            <g data-name="그룹 22821">
                <path data-name="패스 17913" d="M177.5 0v3.041h5.575v13.176h3.041V3.041h5.575V0z" transform="translate(-95.19 7.417)" style="fill:#fff"/>
                <g data-name="그룹 22817">
                    <g data-name="그룹 22816" style="clip-path:url(#39g68q72aa)" transform="translate(4.34 7.417)">
                        <path data-name="패스 17914" d="M8.108 0H0v16.217h8.108A8.108 8.108 0 1 0 8.108 0m0 13.176H3.041V3.041h5.067a5.068 5.068 0 0 1 0 10.135" style="fill:#fff"/>
                        <path data-name="패스 17915" d="M145.608 0a8.108 8.108 0 1 0 8.108 8.108A8.108 8.108 0 0 0 145.608 0m0 13.176a5.068 5.068 0 1 1 5.068-5.068 5.067 5.067 0 0 1-5.068 5.068" transform="translate(-78.15)" style="fill:#fff"/>
                        <path data-name="패스 17916" d="M71.115 0H62.5v16.217h3.041v-5.068h5.575A5.575 5.575 0 1 0 71.115 0m0 8.108h-5.574V3.041h5.575a2.534 2.534 0 1 1 0 5.068" transform="translate(-35.96)" style="fill:#fff"/>
                        <path data-name="패스 17917" d="M42.027 30a2.027 2.027 0 1 0 2.027 2.027A2.027 2.027 0 0 0 42.027 30" transform="translate(-22.582 -17.837)" style="fill:#fff"/>
                    </g>
                </g>
            </g>
        </g>
    </g>
</svg>
