<svg xmlns="http://www.w3.org/2000/svg" width="86" height="22" viewBox="0 0 86 22">
    <defs>
        <clipPath id="nx1cctlrla">
            <path data-name="사각형 7763" transform="translate(1036 427)" style="stroke:#707070;fill:#666" d="M0 0h86v22H0z"/>
        </clipPath>
    </defs>
    <g data-name="#DALIFE_logo" transform="translate(-1036 -427)" style="clip-path:url(#nx1cctlrla)">
        <g data-name="그룹 24134">
            <path data-name="패스 19855" d="M-21.211 3.91H-31.5v-14.435h10.293a7.155 7.155 0 0 1 5.2 2.109 6.894 6.894 0 0 1 2.148 5.109A6.894 6.894 0 0 1-16.007 1.8a7.155 7.155 0 0 1-5.204 2.11zm-7.352-2.887h7.352A4.3 4.3 0 0 0-18.086-.24 4.138 4.138 0 0 0-16.8-3.308a4.138 4.138 0 0 0-1.287-3.068 4.3 4.3 0 0 0-3.125-1.263h-7.352zM-14.87 3.91l7.352-15.158L-.165 3.91h-3.309l-4.044-8.3-4.044 8.3zm19.7-2.757A1.624 1.624 0 0 1 6 1.6a1.363 1.363 0 0 1 .466 1.009A1.363 1.363 0 0 1 6 3.616a1.624 1.624 0 0 1-1.168.445 1.635 1.635 0 0 1-1.187-.445 1.371 1.371 0 0 1-.46-1.009A1.371 1.371 0 0 1 3.644 1.6a1.635 1.635 0 0 1 1.187-.447zM9.9 3.91v-17.719h1.021V2.908H17.8v1zm13.761-17.719V3.91H22.64v-17.719zm13.5 0v1h-6.88v7.359h6.88v1h-6.88v8.36h-1.019v-17.719zm13.732 0v1h-8v7.359h8v1h-8v7.358h8v1h-9.022v-17.717z" transform="translate(1069.094 443.012)" style="fill:#666"/>
        </g>
    </g>
</svg>
