<svg xmlns="http://www.w3.org/2000/svg" width="100" height="22" viewBox="0 0 100 22">
    <defs>
        <clipPath id="y9da3lcyza">
            <path data-name="사각형 7461" style="fill:#111" d="M0 0h90.081v16.768H0z"/>
        </clipPath>
    </defs>
    <g data-name="그룹 22823">
        <path data-name="패스 17912" d="M102.5 0v16.769h14.672v-3.144h-11.528V0z" transform="translate(-54.868 3.067)" style="fill:#111"/>
        <g data-name="그룹 22822">
            <path data-name="사각형 7462" style="fill:none" d="M0 0h100v22H0z"/>
            <g data-name="그룹 22821">
                <path data-name="패스 17913" d="M177.5 0v3.144h5.764v13.625h3.144V3.144h5.764V0z" transform="translate(-94.258 3.068)" style="fill:#111"/>
                <g data-name="그룹 22817">
                    <g data-name="그룹 22816" style="clip-path:url(#y9da3lcyza)" transform="translate(1.621 3.068)">
                        <path data-name="패스 17914" d="M8.478 0H0v16.768h8.478a8.431 8.431 0 0 0 8.478-8.384A8.431 8.431 0 0 0 8.478 0m0 13.624h-5.3V3.144h5.3a5.24 5.24 0 1 1 0 10.48" style="fill:#111"/>
                        <path data-name="패스 17915" d="M145.978 0a8.431 8.431 0 0 0-8.478 8.384 8.479 8.479 0 0 0 16.956 0A8.431 8.431 0 0 0 145.978 0m0 13.624a5.24 5.24 0 1 1 5.3-5.24 5.269 5.269 0 0 1-5.3 5.24" transform="translate(-75.443)" style="fill:#111"/>
                        <path data-name="패스 17916" d="M71.508 0H62.5v16.768h3.179v-5.24h5.829a5.8 5.8 0 0 0 5.829-5.764A5.8 5.8 0 0 0 71.508 0m0 8.384h-5.829v-5.24h5.829a2.62 2.62 0 1 1 0 5.24" transform="translate(-34.749)" style="fill:#111"/>
                        <path data-name="패스 17917" d="M42.12 30a2.1 2.1 0 1 0 2.12 2.1 2.108 2.108 0 0 0-2.12-2.1" transform="translate(-21.787 -17.424)" style="fill:#111"/>
                    </g>
                </g>
            </g>
        </g>
    </g>
</svg>
