<svg xmlns="http://www.w3.org/2000/svg" width="56" height="56" viewBox="0 0 56 56">
    <defs>
        <clipPath id="8rhq9t8gwa">
            <path data-name="사각형 7486" transform="translate(-.482 -.482)" style="fill:#fff;stroke:#707070" d="M0 0h33v33H0z"/>
        </clipPath>
    </defs>
    <g transform="translate(-31 -568)">
        <rect data-name="사각형 7482" width="56" height="56" rx="28" transform="translate(31 568)" style="fill:#ffe500"/>
        <g data-name="마스크 그룹 283" transform="translate(43.482 580.482)" style="clip-path:url(#8rhq9t8gwa)">
            <path data-name="패스 17920" d="M7.309 9.278h1.626l-.813-2.31z" transform="translate(4.745 6.732)" style="fill:#371d1e"/>
            <path data-name="패스 17921" d="M14.114 0C6.319 0 0 4.982 0 11.129c0 3.974 2.642 7.464 6.616 9.429-.216.745-1.39 4.8-1.436 5.115 0 0-.028.239.126.33a.426.426 0 0 0 .337.02c.445-.062 5.157-3.367 5.971-3.936a17.854 17.854 0 0 0 2.5.17c7.8 0 14.114-4.982 14.114-11.129S21.91 0 14.114 0zM7.129 9.4c-.018 1.574.014 3.23-.012 4.78-.008.5-.293.643-.679.784a.255.255 0 0 1-.136.01c-.441-.087-.793-.244-.8-.793-.031-1.548.009-3.207-.012-4.781-.373-.015-.905.015-1.251 0a.763.763 0 0 1-.794-.791.747.747 0 0 1 .8-.79c1.273-.019 2.85-.019 4.123 0a.742.742 0 0 1 .8.79.764.764 0 0 1-.791.791c-.343.016-.877-.014-1.248 0zm6.84 5.49a1.254 1.254 0 0 1-.518.113.668.668 0 0 1-.679-.36l-.407-1.056H9.887l-.407 1.057A.67.67 0 0 1 8.8 15a1.243 1.243 0 0 1-.517-.113c-.225-.1-.441-.388-.194-1.156l1.953-5.127a1.221 1.221 0 0 1 1.086-.8 1.231 1.231 0 0 1 1.086.8l1.946 5.125c.249.771.033 1.064-.191 1.162zm4.115 0h-2.613a.765.765 0 0 1-.78-.746V8.618a.832.832 0 0 1 1.662 0V13.4h1.73a.748.748 0 1 1 0 1.493zm6.379-.613a.814.814 0 0 1-1.46.38l-1.909-2.528-.282.282v1.776a.814.814 0 0 1-1.629 0V8.623a.814.814 0 0 1 1.629 0v1.745l2.27-2.268a.63.63 0 0 1 .452-.182.825.825 0 0 1 .8.757.638.638 0 0 1-.178.5L22.3 11.023l2 2.656a.814.814 0 0 1 .156.6z" transform="translate(1.738 3.865)" style="fill:#371d1e"/>
        </g>
    </g>
</svg>
