<svg data-name="그룹 23317" xmlns="http://www.w3.org/2000/svg" width="26" height="26" viewBox="0 0 26 26">
    <defs>
        <clipPath id="sxxrufb9ra">
            <path data-name="패스 19888" d="M10.833 3.677 8.611 8.651l-5.374.71 3.956 3.9-1 5.481 4.638-2.685 4.638 2.685-1-5.481 3.956-3.9-5.374-.71-2.218-4.974m0-3.677 3.25 7.274 7.583 1-5.575 5.5 1.437 7.893-6.7-3.876-6.7 3.876 1.437-7.893L0 8.276l7.583-1z" transform="translate(1.951 1.95)" style="fill:#111"/>
        </clipPath>
    </defs>
    <path data-name="사각형 6313" style="fill:none" d="M0 0h26v26H0z"/>
    <g data-name="다각형 15" style="fill:#fff">
        <path d="m16.5 20.205-5.29-3.063-.377-.218-.375.218-5.292 3.063 1.147-6.297.07-.39-.282-.278-4.483-4.421 6.064-.802.415-.055.171-.382 2.565-5.742L13.4 7.58l.17.382.416.055 6.063.802-4.483 4.42-.282.279.071.39 1.146 6.297z" style="stroke:none" transform="translate(1.999 2)"/>
        <path d="M10.833 3.677 8.611 8.65l-5.374.71 3.955 3.901-.997 5.48 4.638-2.684 4.639 2.685-.998-5.48L18.43 9.36l-5.374-.71-2.223-4.974m0-3.677 3.25 7.274 7.584 1.002-5.575 5.498 1.437 7.893-6.696-3.876-6.695 3.876 1.437-7.893L0 8.276l7.583-1.002L10.833 0z" style="fill:#ddd;stroke:none" transform="translate(1.999 2)"/>
    </g>
    <g data-name="마스크 그룹 331" style="clip-path:url(#sxxrufb9ra)">
        <path data-name="사각형 7600" style="fill:#111" d="M0 0h12.784v26H0z"/>
    </g>
</svg>
