<svg xmlns="http://www.w3.org/2000/svg" width="28" height="28" viewBox="0 0 28 28">
    <g data-name="그룹 20461">
        <path data-name="사각형 6330" style="fill:none" d="M0 0h28v28H0z"/>
        <g data-name="그룹 21764">
            <g data-name="패스 17818" style="stroke-miterlimit:10;fill:none">
                <path d="m-79.389 5.19-7.467 6.471a1.868 1.868 0 0 0-.645 1.411v8.792a1.867 1.867 0 0 0 1.867 1.867H-70.7a1.867 1.867 0 0 0 1.867-1.867v-8.791a1.868 1.868 0 0 0-.645-1.411l-7.467-6.472a1.867 1.867 0 0 0-2.444 0z" style="stroke:none" transform="translate(92.5 .265)"/>
                <path d="M-78.167 5.735a.866.866 0 0 0-.567.211l-7.467 6.471a.867.867 0 0 0-.299.656v8.792c0 .478.389.867.867.867H-70.7a.868.868 0 0 0 .867-.867v-8.792c0-.252-.11-.49-.3-.656l-7.467-6.47a.866.866 0 0 0-.567-.212m0-1c.436 0 .872.152 1.222.455l7.467 6.472c.41.354.645.87.645 1.41v8.793c0 1.03-.836 1.867-1.867 1.867h-14.933a1.867 1.867 0 0 1-1.867-1.867v-8.792c0-.542.235-1.057.645-1.411l7.466-6.472c.35-.303.787-.455 1.222-.455z" style="fill:#111;stroke:none" transform="translate(92.5 .265)"/>
            </g>
            <path data-name="선 725" transform="translate(12 19.848)" style="stroke:#111;stroke-miterlimit:10;fill:none" d="M0 0h4.667"/>
        </g>
    </g>
</svg>
