<svg id="icon01" xmlns="http://www.w3.org/2000/svg" width="36" height="36" viewBox="0 0 36 36">
  <defs>
    <style>
      .cls-1 {
        fill: #333;
      }

      .cls-2 {
        fill: #fff;
        stroke: #fff;
        stroke-width: 0.2px;
      }
    </style>
  </defs>
  <circle id="타원_878" data-name="타원 878" class="cls-1" cx="18" cy="18" r="18"/>
  <g id="그룹_21836" data-name="그룹 21836" transform="translate(11 11.002)">
    <path id="패스_19704" data-name="패스 19704" class="cls-2" d="M14,8.206V6.716A6.868,6.868,0,0,0,7,0,6.868,6.868,0,0,0,0,6.716v5.571H0A1.445,1.445,0,0,0,1.447,13.66h.345a1.45,1.45,0,0,0,1.447-1.444V8.206A1.45,1.45,0,0,0,1.792,6.761H1.447a1.44,1.44,0,0,0-.778.229V6.716A6.2,6.2,0,0,1,7,.67a6.2,6.2,0,0,1,6.332,6.047V6.99a1.438,1.438,0,0,0-.776-.229h-.35a1.443,1.443,0,0,0-1.442,1.444v4.01a1.448,1.448,0,0,0,1.442,1.447h.35A1.449,1.449,0,0,0,14,12.288h0V8.206ZM1.447,7.43h.345a.784.784,0,0,1,.776.776v4.01a.784.784,0,0,1-.776.776H1.447a.783.783,0,0,1-.778-.769V8.2a.781.781,0,0,1,.778-.774m11.885,4.786a.782.782,0,0,1-.776.776h-.35a.78.78,0,0,1-.774-.776V8.206a.779.779,0,0,1,.774-.776h.35a.779.779,0,0,1,.776.776Z" transform="translate(0 -0.001)"/>
  </g>
</svg>
