<svg xmlns="http://www.w3.org/2000/svg" width="64" height="64" viewBox="0 0 64 64">
    <g data-name="그룹 23227">
        <path data-name="사각형 6330" style="fill:none" d="M0 0h64v64H0z"/>
        <g data-name="패스 19899" style="fill:none">
            <path d="M18.537 0h6.179a18.537 18.537 0 0 1 18.536 18.537v24.716H18.537A18.537 18.537 0 0 1 0 24.716v-6.179A18.537 18.537 0 0 1 18.537 0z" style="stroke:none" transform="translate(10 10)"/>
            <path d="M18.537 1.5c-4.55 0-8.83 1.772-12.047 4.99A16.926 16.926 0 0 0 1.5 18.537v6.179c0 4.55 1.772 8.83 4.99 12.047a16.925 16.925 0 0 0 12.047 4.99h23.215V18.537c0-4.55-1.772-8.83-4.99-12.047A16.925 16.925 0 0 0 24.716 1.5h-6.18m0-1.5h6.18c10.237 0 18.536 8.3 18.536 18.537v24.716H18.537C8.299 43.253 0 34.953 0 24.716v-6.179C0 8.299 8.3 0 18.537 0z" style="fill:#111;stroke:none" transform="translate(10 10)"/>
        </g>
        <g style="isolation:isolate">
            <g data-name="그룹 21012" style="isolation:isolate">
                <path data-name="패스 17863" d="M240.986 419.223h-.551l-1.3-11.958q-.044-.4-.066-.7a6.624 6.624 0 0 1-.022-.474 2.2 2.2 0 0 1 .486-1.49 1.513 1.513 0 0 1 1.191-.564 1.5 1.5 0 0 1 1.181.552 2.521 2.521 0 0 1 .474 1.677q0 .332-.066.993zm-.287 2.471a1.57 1.57 0 0 1 1.148.486 1.546 1.546 0 0 1 .485 1.125 1.613 1.613 0 0 1-.474 1.17 1.557 1.557 0 0 1-1.158.485 1.656 1.656 0 0 1-1.655-1.655 1.519 1.519 0 0 1 .5-1.136 1.628 1.628 0 0 1 1.155-.475z" transform="translate(-209.045 -382.043)" style="fill:#111"/>
            </g>
        </g>
    </g>
</svg>
