<svg xmlns="http://www.w3.org/2000/svg" width="18" height="18" viewBox="0 0 18 18">
    <defs>
        <clipPath id="0wyeb499fa">
            <path data-name="사각형 27" transform="translate(-.133 -.133)" style="fill:none;stroke:#dbdbdb" d="M0 0h18v18H0z"/>
        </clipPath>
    </defs>
    <g data-name="그룹 22441">
        <g data-name="그룹 18" transform="translate(.134 .133)" style="clip-path:url(#0wyeb499fa)">
            <path data-name="패스 20" d="M12.019 1.973a3.07 3.07 0 0 0-4.233.958l-.286.448-.281-.448a3.07 3.07 0 0 0-4.229-.958 2.976 2.976 0 0 0-.957 4.233l1.184 1.308c1.6 1.765 4.256 4.692 4.287 4.692s2.7-2.943 4.3-4.707l1.172-1.293a2.894 2.894 0 0 0-.957-4.233z" transform="translate(1.342 2.013)" style="fill:#f54c2b;stroke:#f54c2b;stroke-linecap:round;stroke-linejoin:round"/>
        </g>
    </g>
</svg>
