<svg xmlns="http://www.w3.org/2000/svg" xmlns:xlink="http://www.w3.org/1999/xlink" width="56" height="56" viewBox="0 0 56 56">
  <defs>
    <style>
      .cls-1, .cls-4 {
        fill: #c9c9c9;
      }

      .cls-1 {
        stroke: #707070;
      }

      .cls-2 {
        fill: #333;
      }

      .cls-3 {
        clip-path: url(#clip-path);
      }
    </style>
    <clipPath id="clip-path">
      <rect id="사각형_7487" data-name="사각형 7487" class="cls-1" width="26" height="26" transform="translate(-0.489 -0.489)"/>
    </clipPath>
  </defs>
  <g id="apple" transform="translate(-203 -568)">
    <rect id="사각형_7470" data-name="사각형 7470" class="cls-2" width="56" height="56" rx="28" transform="translate(203 568)"/>
    <g id="마스크_그룹_284" data-name="마스크 그룹 284" class="cls-3" transform="translate(218.489 582.489)">
      <path id="Apple_logo_black" class="cls-4" d="M18.543,8.021A5.329,5.329,0,0,0,16,12.5a5.187,5.187,0,0,0,3.157,4.757A12.338,12.338,0,0,1,17.538,20.6c-1.007,1.449-2.059,2.9-3.659,2.9s-2.012-.929-3.859-.929c-1.8,0-2.44.96-3.9.96s-2.485-1.341-3.659-2.988A14.411,14.411,0,0,1,0,12.748c0-4.574,2.974-7,5.9-7,1.555,0,2.852,1.021,3.828,1.021.929,0,2.379-1.082,4.148-1.082A5.547,5.547,0,0,1,18.543,8.021ZM13.037,3.75A5.253,5.253,0,0,0,14.286.473,2.259,2.259,0,0,0,14.242,0a5.262,5.262,0,0,0-3.461,1.783,5.115,5.115,0,0,0-1.3,3.188,2.16,2.16,0,0,0,.045.426,1.841,1.841,0,0,0,.32.031A4.56,4.56,0,0,0,13.037,3.75Z" transform="translate(3.096 0.91)"/>
    </g>
  </g>
</svg>
