<svg xmlns="http://www.w3.org/2000/svg" width="26" height="26" viewBox="0 0 26 26">
    <g data-name="그룹 24544">
        <path data-name="사각형 6472" style="fill:none" d="M0 0h26v26H0z"/>
        <g data-name="그룹 23502">
            <g data-name="그룹 24543">
                <g data-name="합치기 16" style="stroke-linejoin:round;stroke-linecap:round;fill:none">
                    <path d="M5280.289 2938.506a1 1 0 0 1-1-1v-11a1 1 0 0 1 1-1h12a1 1 0 0 1 1 1v2.619h3.286l1.708 4.98h.006v3.4a1 1 0 0 1-1 1h-17z" style="stroke:none" transform="translate(-5275.289 -2920.506)"/>
                    <path d="M5297.289 2937.506v-3.216l-1.429-4.165h-2.57a1 1 0 0 1-1-1v-2.62h-12.001v11.001h11.998l.054-.001 4.948.001m-5 1h-12a1 1 0 0 1-1-1v-11a1 1 0 0 1 1-1h12a1 1 0 0 1 1 1v2.619h3.286l1.707 4.98h.007v3.401a.998.998 0 0 1-1 .999h-4.948a.903.903 0 0 1-.052.001z" style="fill:#111;stroke:none" transform="translate(-5275.289 -2920.506)"/>
                </g>
            </g>
            <g data-name="타원 1397" transform="translate(15 16)" style="stroke:#111;fill:#fff">
                <circle cx="2.5" cy="2.5" r="2.5" style="stroke:none"/>
                <circle cx="2.5" cy="2.5" r="2" style="fill:none"/>
            </g>
            <g data-name="타원 1399" transform="translate(6 16)" style="stroke:#111;fill:#fff">
                <circle cx="2.5" cy="2.5" r="2.5" style="stroke:none"/>
                <circle cx="2.5" cy="2.5" r="2" style="fill:none"/>
            </g>
            <path data-name="패스 19950" d="M1531.472-436.916h-6" transform="translate(-1522.472 450.916)" style="stroke:#111;stroke-linecap:round;fill:none"/>
            <g data-name="사각형 7823" transform="translate(17 7)" style="stroke:#111;fill:none">
                <path style="stroke:none" d="M0 0h1v10H0z"/>
                <rect x=".5" y=".5" height="9" style="fill:none"/>
            </g>
        </g>
    </g>
</svg>
