<svg xmlns="http://www.w3.org/2000/svg" width="50" height="50" viewBox="0 0 50 50">
    <defs>
        <clipPath id="cg5udqppwa">
            <path data-name="사각형 7596" style="fill:#fff;stroke:#111" d="M0 0h23.67v24.513H0z"/>
        </clipPath>
        <clipPath id="1dowsswyrb">
            <path data-name="사각형 7595" style="fill:#fff;stroke:#111" d="M0 0h17.395v17.396H0z"/>
        </clipPath>
    </defs>
    <g data-name="그룹 23043">
        <path data-name="사각형 7503" style="fill:transparent" d="M0 0h50v50H0z"/>
        <g data-name="그룹 23365">
            <g data-name="그룹 23367">
                <path data-name="패스 19866" d="m3.675 32.894 1.163-.819 1.452-1.021q-.161-1.766-.318-3.532l-3.22-1.491L.7 27.474c.23-5.813 5.3-3.7 7.768-5.438l9.708-8.477 4.468-4.153c1.4-1.389.97-4.3 2.529-5.95 1.758-1.865 3.887-1.616 6.01-.856l-1.162.818-1.45 1.022.317 3.532q1.609.746 3.224 1.491l2.052-1.443c-.229 5.813-5.3 3.705-7.765 5.439l-9.708 8.477-4.47 4.153c-1.4 1.387-.97 4.3-2.529 5.95-1.762 1.861-3.892 1.616-6.017.855z" transform="translate(6.298 7.117)" style="fill:#f54c2b"/>
                <g data-name="그룹 23369">
                    <g data-name="그룹 23368" style="clip-path:url(#cg5udqppwa)" transform="translate(7.32 7.117)">
                        <path data-name="패스 19871" d="M3.452 1.881 4.835.5l3.858 3.464.942 4.362.948.97 5.38 5.381 3.886 3.884 3.321 3.329c-.358.3-.73.649-1.1 1.023s-.718.747-1.024 1.1l-3.47-3.47-3.876-3.866-6.052-6.325-4.113-1.226L.5 4.834l2.952-2.953" style="stroke-linecap:round;stroke-linejoin:round;fill:#fff;stroke:#111"/>
                    </g>
                </g>
                <g data-name="그룹 23366" transform="translate(25.527 25.237)" style="clip-path:url(#1dowsswyrb)">
                    <path data-name="패스 19869" d="M16.789 10.644 6.751.605C6.3.159 4.566 1.173 2.869 2.869S.159 6.3.605 6.751L10.643 16.79c.445.448 2.185-.568 3.881-2.264s2.712-3.434 2.265-3.882" style="fill:#fff;stroke:#111"/>
                    <path data-name="패스 19870" d="M16.789 10.644 6.751.605C6.3.159 4.566 1.173 2.869 2.869S.159 6.3.605 6.751L10.643 16.79c.445.448 2.185-.568 3.881-2.264s2.712-3.434 2.265-3.882z" style="stroke-linecap:round;stroke-linejoin:round;fill:#fff;stroke:#111"/>
                </g>
            </g>
            <path data-name="사각형 7594" style="fill:none" d="M0 0h40v36.239H0z" transform="translate(5 7.117)"/>
        </g>
    </g>
</svg>
