<svg xmlns="http://www.w3.org/2000/svg" width="40" height="40" viewBox="0 0 40 40">
    <defs>
        <clipPath id="4a14q0avha">
            <path data-name="사각형 7783" transform="translate(.021)" style="fill:#f1f1f1" d="M0 0h40v40H0z"/>
        </clipPath>
    </defs>
    <g data-name="마스크 그룹 370" transform="translate(-.021)" style="clip-path:url(#4a14q0avha)">
        <path data-name="패스 19980" d="M17.5 17.5h13.354" transform="translate(-5.495 -3.846)" style="fill:none;stroke:#000;stroke-linecap:round"/>
        <path data-name="패스 19981" d="M17.5 26.25h11.129" transform="translate(-5.495 -9.258)" style="fill:none;stroke:#000;stroke-linecap:round"/>
        <path data-name="패스 19982" d="M17.5 35h7.79" transform="translate(-5.495 -14.669)" style="fill:none;stroke:#000;stroke-linecap:round"/>
        <path data-name="패스 19983" d="m53.127 17.78 1.025 1.02m.512-3.586a2.174 2.174 0 0 1 0 3.074l-9.733 9.734-4.1 1.025 1.024-4.041 9.737-9.787a2.168 2.168 0 0 1 2.934-.128z" transform="translate(-19.926 -1.042)" style="stroke-linejoin:round;fill:none;stroke:#000;stroke-linecap:round"/>
        <path data-name="패스 19985" d="M29.894 24.778v6.651H8.75V5.833h21.144l-.01 4.981" transform="translate(-.084 1.369)" style="stroke-linejoin:round;fill:none;stroke:#000;stroke-linecap:round"/>
    </g>
</svg>
