<svg xmlns="http://www.w3.org/2000/svg" width="118" height="26" viewBox="0 0 118 26">
    <defs>
        <clipPath id="dj7j89dgta">
            <path data-name="사각형 7461" style="fill:#111" d="M0 0h106.459v19.817H0z"/>
        </clipPath>
    </defs>
    <g data-name="그룹 22823">
        <path data-name="패스 17912" d="M102.5 0v19.817h17.34V16.1h-13.624V0z" transform="translate(-46.207 3.625)" style="fill:#111"/>
        <g data-name="그룹 22822">
            <path data-name="사각형 7462" style="fill:none" d="M0 0h118v26H0z"/>
            <g data-name="그룹 22821">
                <path data-name="패스 17913" d="M177.5 0v3.716h6.812v16.1h3.716v-16.1h6.812V0z" transform="translate(-79.122 3.625)" style="fill:#111"/>
                <g data-name="그룹 22817">
                    <g data-name="그룹 22816" style="clip-path:url(#dj7j89dgta)" transform="translate(1.916 3.625)">
                        <path data-name="패스 17914" d="M10.02 0H0v19.817h10.02a9.964 9.964 0 0 0 10.02-9.908A9.964 9.964 0 0 0 10.02 0m0 16.1H3.757V3.716h6.263a6.193 6.193 0 1 1 0 12.386" style="fill:#111"/>
                        <path data-name="패스 17915" d="M147.52 0a9.964 9.964 0 0 0-10.02 9.908 10.02 10.02 0 0 0 20.039 0A9.964 9.964 0 0 0 147.52 0m0 16.1a6.193 6.193 0 1 1 6.262-6.193 6.228 6.228 0 0 1-6.262 6.193" transform="translate(-64.16)" style="fill:#111"/>
                        <path data-name="패스 17916" d="M73.146 0H62.5v19.817h3.757v-6.193h6.889a6.851 6.851 0 0 0 6.889-6.812A6.851 6.851 0 0 0 73.146 0m0 9.908h-6.889V3.716h6.889a3.1 3.1 0 1 1 0 6.193" transform="translate(-29.704)" style="fill:#111"/>
                        <path data-name="패스 17917" d="M42.5 30a2.477 2.477 0 1 0 2.5 2.477A2.491 2.491 0 0 0 42.5 30" transform="translate(-18.476 -15.137)" style="fill:#111"/>
                    </g>
                </g>
            </g>
        </g>
    </g>
</svg>
