<?xml version="1.0" encoding="utf-8"?>
<!-- Generator: Adobe Illustrator 25.4.1, SVG Export Plug-In . SVG Version: 6.00 Build 0)  -->
<svg version="1.1" id="Layer_1" xmlns="http://www.w3.org/2000/svg" xmlns:xlink="http://www.w3.org/1999/xlink" x="0px" y="0px"
	 viewBox="0 0 30 30" style="enable-background:new 0 0 30 30;" xml:space="preserve">
<style type="text/css">
	.st0{fill:#222222;}
</style>
<g>
	<path class="st0" d="M25.62,0H4.38C1.96,0,0,1.96,0,4.38v21.25C0,28.04,1.96,30,4.38,30h21.25c2.41,0,4.38-1.96,4.38-4.38V4.38
		C30,1.96,28.04,0,25.62,0z M1.25,10.63h4.77C5.37,11.95,5,13.43,5,15s0.37,3.05,1.02,4.37H1.25V10.63z M28.75,25.62
		c0,1.72-1.4,3.12-3.12,3.12H4.38c-1.72,0-3.12-1.4-3.12-3.12v-5h5.49C8.54,23.26,11.57,25,15,25s6.46-1.74,8.26-4.37h5.49V25.62z
		 M6.25,15c0-4.82,3.93-8.75,8.75-8.75s8.75,3.93,8.75,8.75s-3.93,8.75-8.75,8.75S6.25,19.82,6.25,15z M28.75,19.37h-4.77
		C24.63,18.05,25,16.57,25,15s-0.37-3.05-1.02-4.38h4.77V19.37z M28.75,9.37h-5.49C21.46,6.74,18.43,5,15,5S8.54,6.74,6.74,9.37
		H1.25v-5c0-1.72,1.4-3.12,3.12-3.12h21.25c1.72,0,3.12,1.4,3.12,3.12v5H28.75z"/>
	<path class="st0" d="M25,2.5c-1.38,0-2.5,1.12-2.5,2.5s1.12,2.5,2.5,2.5s2.5-1.12,2.5-2.5S26.38,2.5,25,2.5z M25,6.25
		c-0.69,0-1.25-0.56-1.25-1.25S24.31,3.75,25,3.75S26.25,4.31,26.25,5S25.69,6.25,25,6.25z"/>
	<path class="st0" d="M15,21.87c3.79,0,6.87-3.08,6.87-6.87S18.79,8.12,15,8.12S8.13,11.2,8.13,15C8.13,18.79,11.21,21.87,15,21.87z
		 M15,9.37c3.1,0,5.62,2.52,5.62,5.63c0,3.1-2.52,5.62-5.62,5.62S9.37,18.1,9.37,15C9.37,11.9,11.9,9.37,15,9.37z"/>
	<path class="st0" d="M11.88,15c0-1.72,1.4-3.12,3.12-3.12c0.35,0,0.62-0.28,0.62-0.63s-0.28-0.63-0.62-0.63
		c-2.41,0-4.38,1.96-4.38,4.38c0,0.34,0.28,0.62,0.63,0.62S11.88,15.35,11.88,15z"/>
</g>
</svg>
