<?xml version="1.0" encoding="UTF-8"?><svg id="_레이어_2" xmlns="http://www.w3.org/2000/svg" viewBox="0 0 24 24"><defs><style>.cls-1{fill:#fff;}.cls-2{fill:#020202;}</style></defs><g id="Isolation_Mode"><g><rect class="cls-2" width="24" height="24"/><path class="cls-1" d="M12,2.34H2.34v6.14h13.86c.69,0,1.24,.56,1.24,1.24v4.55c0,.69-.56,1.24-1.24,1.24H2.34v6.14H12c5.33,0,9.66-4.32,9.66-9.66S17.33,2.34,12,2.34Z"/><g><path class="cls-1" d="M9.17,9.73c-1.26,0-2.27,1.02-2.27,2.27s1.02,2.27,2.27,2.27,2.27-1.02,2.27-2.27-1.02-2.27-2.27-2.27Zm0,3.72c-.8,0-1.45-.65-1.45-1.45s.65-1.45,1.45-1.45,1.45,.65,1.45,1.45-.65,1.45-1.45,1.45Z"/><path class="cls-1" d="M6.3,10.55c-.26-.49-.78-.83-1.37-.83H2.34v4.55h.83v-1.45h1.76c.6,0,1.11-.34,1.37-.83,.11-.22,.18-.46,.18-.72s-.06-.51-.18-.72Zm-3.13,1.45v-1.45h1.76c.4,0,.72,.32,.72,.72s-.32,.72-.72,.72h-1.76Z"/><path class="cls-1" d="M16.02,10.55c-.26-.49-.78-.83-1.37-.83h-2.59v4.55h.83v-1.45h1.76c.6,0,1.11-.34,1.37-.83,.11-.22,.18-.46,.18-.72s-.06-.51-.18-.72Zm-3.13,1.45v-1.45h1.76c.4,0,.72,.32,.72,.72s-.32,.72-.72,.72h-1.76Z"/></g></g></g></svg>