<?xml version="1.0" encoding="utf-8"?>
<!-- Generator: Adobe Illustrator 25.4.1, SVG Export Plug-In . SVG Version: 6.00 Build 0)  -->
<svg version="1.1" id="Layer_1" xmlns="http://www.w3.org/2000/svg" xmlns:xlink="http://www.w3.org/1999/xlink" x="0px" y="0px"
	 viewBox="0 0 30 30" style="enable-background:new 0 0 30 30;" xml:space="preserve">
<style type="text/css">
	.st0{fill:#072222;}
</style>
<g>
	<path class="st0" d="M24.37,15c-0.35,0-0.63,0.28-0.63,0.62v8.75c0,2.41-1.96,4.37-4.37,4.37H5.62c-2.41,0-4.38-1.96-4.38-4.37
		V10.63c0-2.41,1.96-4.38,4.38-4.38h8.75c0.35,0,0.63-0.28,0.63-0.62C15,5.28,14.72,5,14.37,5H5.62C2.52,5,0,7.52,0,10.63v13.75
		C0,27.48,2.52,30,5.62,30h13.75c3.1,0,5.62-2.52,5.62-5.62v-8.75C25,15.28,24.72,15,24.37,15z"/>
	<path class="st0" d="M29.38,4.74l-4.12-4.12C24.86,0.22,24.32,0,23.75,0c-0.56,0-1.11,0.23-1.51,0.63L8.93,13.93
		C8.87,14,8.81,14.08,8.78,14.18l-3.12,9.37c-0.07,0.22-0.02,0.47,0.15,0.64c0.12,0.12,0.28,0.18,0.44,0.18
		c0.07,0,0.13-0.01,0.2-0.03l9.37-3.12c0.09-0.03,0.18-0.08,0.24-0.15L29.38,7.76C29.78,7.35,30,6.83,30,6.25
		C30,5.69,29.77,5.14,29.38,4.74z M20.62,4.01l2.24,2.24L12.5,16.62l-2.24-2.24L20.62,4.01z M7.24,22.76l1.16-3.48l2.32,2.32
		L7.24,22.76z M12.04,21.16l-3.2-3.2l0.81-2.42l4.82,4.82L12.04,21.16z M15.62,19.74l-2.24-2.24L23.75,7.13l2.24,2.24L15.62,19.74z
		 M28.49,6.87l-1.62,1.62l-5.37-5.37l1.61-1.61c0.34-0.34,0.92-0.34,1.25,0l4.12,4.12c0.16,0.16,0.26,0.4,0.26,0.62
		C28.75,6.5,28.67,6.7,28.49,6.87z"/>
</g>
</svg>
