<?xml version="1.0" encoding="UTF-8"?><svg id="_레이어_2" xmlns="http://www.w3.org/2000/svg" viewBox="0 0 24 16.81"><g id="Isolation_Mode"><path d="M23.39,2.18c.86,2.27,.82,10.52-.21,12.7-.28,.6-.74,1.01-1.31,1.31-.81,.42-5.5,.62-10.1,.62-4.23,0-8.39-.17-9.36-.48-.9-.3-1.51-.9-1.83-1.79C-.2,12.35-.37,3.17,1.18,1.36,1.71,.74,2.39,.38,3.2,.3c1.85-.2,5.41-.3,8.92-.3,4.37,0,8.67,.15,9.48,.45,.86,.31,1.48,.88,1.8,1.73ZM9.02,12.03c2.49-1.3,4.97-2.57,7.48-3.87-2.49-1.31-4.95-2.59-7.42-3.89-.02,2.59-.04,5.16-.06,7.76"/></g></svg>